# xmcd
#
# Track frame offsets:
#   150
#   12121
#   25048
#   37125
#   50905
#   62051
#   76853
#   87684
#   100715
#   109011
#   118904
#   127057
#
# Disc length: 1833 seconds
#
# Revision: 0
# Processed by: cddbd v1.4PL0 Copyright (c) Steve Scherf et al.
# Submitted via: uFREEDB 1.6.0
#
DISCID=a107270c
DTITLE=Martin, Dean - Country Style
DYEAR=1963
DGENRE=Vocal
TTITLE0=I'm So Lonesome I Could Cry
TTITLE1=Face In The Crowd
TTITLE2=Things
TTITLE3=A Room Full Of Roses
TTITLE4=I Walk The Line
TTITLE5=My Heart Cries For You
TTITLE6=Any Time
TTITLE7=Shutters And Boards
TTITLE8=Blue Blue Day
TTITLE9=Singin' The Blues
TTITLE10=Hey Good Lookin'
TTITLE11=Ain't Gonna Try Anymore
EXTD=
EXTT0=
EXTT1=
EXTT2=
EXTT3=
EXTT4=
EXTT5=
EXTT6=
EXTT7=
EXTT8=
EXTT9=
EXTT10=
EXTT11=
PLAYORDER=
